Coordinates
version=1
nRows=17
nColumns=24
inDegrees=yes

Units are S.I. units (second, meters, Newtons, ...)
Angles are in degrees.

endheader
time	pelvis_tilt	pelvis_list	pelvis_rotation	pelvis_tx	pelvis_ty	pelvis_tz	hip_flexion_r	hip_adduction_r	hip_rotation_r	knee_angle_r	ankle_angle_r	subtalar_angle_r	mtp_angle_r	hip_flexion_l	hip_adduction_l	hip_rotation_l	knee_angle_l	ankle_angle_l	subtalar_angle_l	mtp_angle_l	lumbar_extension	lumbar_bending	lumbar_rotation
      1.46683333	     -0.84752526	      2.64539589	    -15.68488504	      0.89595147	      0.98394521	      0.31675505	    -16.25243792	     -3.24653938	      7.28596758	    -11.17896462	     14.83417238	     -1.47114179	      9.11396801	     24.79984898	     -2.23228898	    -14.89929562	      4.48490882	      3.29864873	    -11.58440964	      7.78501867	      0.20271395	     -1.54369452	     14.03195157
      1.47100000	     -0.82124512	      2.71266992	    -15.78829351	      0.90185568	      0.98338714	      0.31654060	    -16.42931429	     -3.44994185	      7.29527621	    -11.49557285	     14.65555596	     -1.46529807	      9.16366543	     24.82780992	     -2.17310815	    -14.89306168	      4.00787529	      3.45517573	    -11.75832814	      7.77767408	      0.21441829	     -1.62443328	     14.05803392
      1.47516667	     -0.77590804	      2.78653649	    -15.89968600	      0.90782099	      0.98286990	      0.31633940	    -16.60498131	     -3.66943050	      7.26123097	    -11.85273785	     14.47658834	     -1.39286526	      9.26281707	     24.81660156	     -2.09935811	    -14.86465870	      3.52926450	      3.63302444	    -11.93212567	      7.76862285	      0.25038712	     -1.73993440	     14.14954816
      1.47933333	     -0.73018782	      2.89227468	    -16.01751659	      0.91381497	      0.98236533	      0.31608509	    -16.73468464	     -3.93454396	      7.14925583	    -12.27391959	     14.27758904	     -1.24227334	     14.69941633	     24.80255287	     -1.98781925	    -14.82904483	      3.04172556	      3.69070014	    -12.13462424	      7.42827183	      0.25011134	     -1.87903250	     14.32465421
      1.48350000	     -0.69260731	      2.99419571	    -16.12674624	      0.91988110	      0.98189140	      0.31586252	    -16.88108989	     -4.17950279	      7.12674167	    -12.65850508	     14.02738392	     -1.22047364	     14.70631117	     24.79340221	     -1.87977466	    -14.80628623	      2.52880356	      3.74371048	    -12.28398452	      7.43256981	      0.29694162	     -2.01529763	     14.38006437
      1.48766667	     -0.65099689	      3.12424169	    -16.22915830	      0.92599337	      0.98142288	      0.31558625	    -16.99265144	     -4.46229691	      7.00902010	    -13.11026916	     13.84057410	     -1.00748472	     14.77976473	     24.77166640	     -1.72976615	    -14.73924806	      2.03194167	      3.70012516	    -12.50231777	      7.46176176	      0.33222832	     -2.18354645	     14.57456971
      1.49183333	     -0.60854946	      3.25311370	    -16.32955690	      0.93215539	      0.98100757	      0.31533341	    -17.11485780	     -4.73455026	      6.96171660	    -13.54056467	     13.55439386	     -0.99722742	     14.80840032	     24.75029210	     -1.58059613	    -14.69555866	      1.50126256	      3.66654139	    -12.65666255	      7.47427244	      0.38873109	     -2.35041253	     14.61590962
      1.49600000	     -0.55860953	      3.41654382	    -16.43013846	      0.93835472	      0.98060012	      0.31503174	    -17.19265426	     -5.05511226	      6.81222170	    -14.05831207	     13.33979556	     -0.75806369	     15.03778470	     24.69690600	     -1.37835947	    -14.55926877	      1.03618895	      3.48525574	    -12.99249848	      7.56313829	      0.42971290	     -2.55845579	     14.77925199
      1.50016667	     -0.51773222	      3.58782274	    -16.50245046	      0.94462954	      0.98021812	      0.31472463	    -17.28223852	     -5.36571313	      6.69929450	    -14.53126957	     13.00084195	     -0.77014448	     18.12767604	     24.66648254	     -1.16335701	    -14.45359302	      0.54479784	      3.22132320	    -13.26302761	      8.79705746	      0.50338824	     -2.78022819	     14.83232445
      1.50433333	     -0.47558438	      3.74856505	    -16.57190405	      0.95092122	      0.97989048	      0.31439813	    -17.36551597	     -5.66383590	      6.59933299	    -15.01861587	     12.59371821	     -0.73701258	     18.13836689	     24.64856220	     -0.96101922	    -14.41057845	      0.00413791	      3.02753635	    -13.37957670	      8.80447545	      0.57908771	     -2.97253522	     14.87707726
      1.50850000	     -0.43750683	      3.96211174	    -16.64853898	      0.95725410	      0.97954959	      0.31403291	    -17.37705633	     -6.02802520	      6.40617142	    -15.61574802	     12.31053668	     -0.46895894	     18.25626621	     24.61307757	     -0.69259727	    -14.26194466	     -0.45855189	      2.64685077	    -13.71491751	      8.86312803	      0.65776756	     -3.23521055	     15.01467045
      1.51266667	     -0.40235080	      4.17029869	    -16.69148840	      0.96364081	      0.97926427	      0.31367876	    -17.41901593	     -6.36211381	      6.28406308	    -16.15117590	     11.85974498	     -0.45321598	     18.32265737	     24.60530629	     -0.42940608	    -14.17386409	     -0.97980863	      2.30970449	    -13.85354785	      8.89362938	      0.75943026	     -3.50499998	     15.04587177
      1.51683333	     -0.36025667	      4.39620651	    -16.74624005	      0.97001135	      0.97899848	      0.31325729	    -17.39439478	     -6.73381998	      6.06744870	    -16.81631263	     11.50927524	     -0.23589452	     18.56563229	     24.56954458	     -0.13166535	    -13.99852727	     -1.43785392	      1.82156719	    -14.26635891	      8.99704732	      0.84930328	     -3.76373093	     15.12586202
      1.52100000	     -0.31150098	      4.61634984	    -16.76052200	      0.97646842	      0.97880035	      0.31285048	    -17.41900568	     -7.07432276	      5.91458904	    -17.40876929	     10.97959828	     -0.27712510	     18.63386830	     24.56168084	      0.15716231	    -13.94687946	     -1.97883049	      1.45193563	    -14.34448748	      9.02456277	      0.95400947	     -4.03616981	     15.14389869
      1.52516667	     -0.28657374	      4.88693049	    -16.77832591	      0.98290673	      0.97856490	      0.31236721	    -17.33916397	     -7.47803954	      5.66429089	    -18.12594640	     10.57907544	      0.00053465	     19.12273708	     24.56473038	      0.51207584	    -13.71101926	     -2.45000632	      0.86231938	    -14.85727526	      9.21640723	      1.06820989	     -4.36573470	     15.20775555
      1.52933333	     -0.23158305	      5.11747077	    -16.77283449	      0.98936219	      0.97845492	      0.31191698	    -17.31980551	     -7.82301172	      5.50174808	    -18.80162645	      9.96306711	     -0.06170090	     19.21472028	     24.56375324	      0.81808066	    -13.66112645	     -3.00788659	      0.43577027	    -14.88208310	      9.25073881	      1.16259882	     -4.64497052	     15.20674348
      1.53350000	     -0.22356973	      5.39920579	    -16.76091983	      0.99585648	      0.97828300	      0.31139945	    -17.19425224	     -8.22239263	      5.26543310	    -19.55108846	      9.35992310	      0.01343743	     25.42630957	     24.59896955	      1.18200941	    -13.46926381	     -3.49809320	     -0.17511405	    -15.24478904	     11.57149664	      1.31753059	     -4.98054400	     15.15937605
